<?xml version="1.0" encoding="utf-8"?>
<!-- Generator: Adobe Illustrator 18.1.1, SVG Export Plug-In . SVG Version: 6.00 Build 0)  -->
<!DOCTYPE svg PUBLIC "-//W3C//DTD SVG 1.1//EN" "http://www.w3.org/Graphics/SVG/1.1/DTD/svg11.dtd">
<svg version="1.1" xmlns="http://www.w3.org/2000/svg" xmlns:xlink="http://www.w3.org/1999/xlink" x="0px" y="0px"
	 viewBox="0 0 32 20" enable-background="new 0 0 32 20" xml:space="preserve">
<g id="Layer_1">
</g>
<g id="Layer_2">
	<g>
		<path fill="#F2F2F2" d="M30.8,9.5L30.8,9.5c0,0.1,0,0.2-0.1,0.2l-13.6,9.4c-0.2,0.1-0.4,0-0.4-0.2v-5.5c0-0.1,0-0.2,0.1-0.2
			l7.5-5.1c0.2-0.1,0.1-0.3,0-0.4L16.8,3c-0.1,0-0.1-0.1-0.1-0.2V1.1c0-0.2,0.2-0.3,0.4-0.2l13.6,8.5C30.8,9.4,30.8,9.5,30.8,9.5z"
			/>
	</g>
	<g>
		<path fill="#F2F2F2" d="M24.3,7.7L16.8,3c-0.1,0-0.1-0.1-0.1-0.2V1.1c0-0.2,0.2-0.3,0.4-0.2l13.6,8.5c0.1,0,0.1,0.1,0.1,0.2v0
			c0,0.1,0,0.2-0.1,0.2"/>
	</g>
	<g>
		<path fill="#F2F2F2" d="M1.3,9.3l13.6-8.5c0.2-0.1,0.4,0,0.4,0.2v1.7c0,0.1,0,0.2-0.1,0.2L7.7,7.7C7.6,7.8,7.6,8,7.7,8.1l7.5,5.1
			c0.1,0,0.1,0.1,0.1,0.2v5.5c0,0.2-0.2,0.3-0.4,0.2L1.3,9.8c-0.1,0-0.1-0.1-0.1-0.2v0C1.2,9.5,1.2,9.4,1.3,9.3z"/>
	</g>
	<g>
		<path fill="#F2F2F2" d="M1.3,9.8c-0.1,0-0.1-0.1-0.1-0.2v0c0-0.1,0-0.2,0.1-0.2l13.6-8.5c0.2-0.1,0.4,0,0.4,0.2v1.7
			c0,0.1,0,0.2-0.1,0.2L7.7,7.7"/>
	</g>
</g>
</svg>
