<?xml version="1.0" encoding="utf-8"?>
<!-- Generator: Adobe Illustrator 18.1.1, SVG Export Plug-In . SVG Version: 6.00 Build 0)  -->
<!DOCTYPE svg PUBLIC "-//W3C//DTD SVG 1.1//EN" "http://www.w3.org/Graphics/SVG/1.1/DTD/svg11.dtd">
<svg version="1.1" xmlns="http://www.w3.org/2000/svg" xmlns:xlink="http://www.w3.org/1999/xlink" x="0px" y="0px"
	 viewBox="0 0 80 50" enable-background="new 0 0 80 50" xml:space="preserve">
<g id="Layer_1">
</g>
<g id="Layer_2">
	<g>
		<path fill="#BF360C" d="M78.1,23.5L78.1,23.5c0,0.3-0.1,0.5-0.3,0.6l-35,24.1c-0.4,0.3-1,0-1-0.5V33.5c0-0.2,0.1-0.4,0.3-0.5
			l19.3-13.2c0.4-0.3,0.4-0.9,0-1.1L42,6.6c-0.2-0.1-0.3-0.3-0.3-0.6V1.7c0-0.5,0.6-0.8,1-0.6l35,21.8C78,23,78.1,23.2,78.1,23.5z"
			/>
	</g>
	<g>
		<path fill="#BF360C" d="M61.3,18.6L42,6.6c-0.2-0.1-0.3-0.3-0.3-0.6V1.7c0-0.5,0.6-0.8,1-0.6l35,21.8c0.2,0.1,0.3,0.3,0.3,0.6v0
			c0,0.2-0.1,0.4-0.3,0.5"/>
	</g>
	<g>
		<path fill="#BF360C" d="M2.1,22.9l35-21.8c0.4-0.3,1,0,1,0.6V6c0,0.2-0.1,0.4-0.3,0.6L18.6,18.6c-0.4,0.3-0.4,0.8,0,1.1L37.9,33
			c0.2,0.1,0.3,0.3,0.3,0.5v14.1c0,0.5-0.6,0.8-1,0.5L2.1,24c-0.2-0.1-0.3-0.3-0.3-0.5v0C1.8,23.2,2,23,2.1,22.9z"/>
	</g>
	<g>
		<path fill="#BF360C" d="M2.1,24c-0.2-0.1-0.3-0.3-0.3-0.5v0c0-0.2,0.1-0.4,0.3-0.6l35-21.8c0.4-0.3,1,0,1,0.6V6
			c0,0.2-0.1,0.4-0.3,0.6L18.6,18.6"/>
	</g>
</g>
</svg>
